<?xml version="1.0" encoding="utf-8"?>
<!-- Generator: Adobe Illustrator 21.0.2, SVG Export Plug-In . SVG Version: 6.00 Build 0)  -->
<svg version="1.1" id="Layer_2" xmlns="http://www.w3.org/2000/svg" xmlns:xlink="http://www.w3.org/1999/xlink" x="0px" y="0px"
	 width="392.4px" height="151.8px" viewBox="0 0 392.4 151.8" style="enable-background:new 0 0 392.4 151.8;" xml:space="preserve"
	>
<style type="text/css">
	.st0{fill-rule:evenodd;clip-rule:evenodd;fill:#FF9900;}
	.st1{stroke:#000000;}
	.st2{fill-rule:evenodd;clip-rule:evenodd;}
</style>
<g>
	<polygon class="st0" points="50.5,145.6 27.5,137.4 27.5,103.6 50.5,111.4 	"/>
	<polygon class="st0" points="54.8,145.6 77.8,137.4 77.8,103.6 54.8,111.4 	"/>
	<polygon class="st0" points="29.8,101 53.2,94.5 74.8,101.4 53.2,108.8 	"/>
</g>
<g>
	<polygon class="st0" points="23.1,98.4 0,90.1 0,56.3 23.1,64.2 	"/>
	<polygon class="st0" points="27.3,98.4 50.4,90.1 50.4,56.3 27.3,64.2 	"/>
	<polygon class="st0" points="2.4,53.8 25.7,47.2 47.4,54.2 25.7,61.6 	"/>
</g>
<g>
	<polygon class="st0" points="76.9,98.4 53.8,90.1 53.8,56.3 76.9,64.2 	"/>
	<polygon class="st0" points="81.1,98.4 104.2,90.1 104.2,56.3 81.1,64.2 	"/>
	<polygon class="st0" points="56.2,53.8 79.5,47.2 101.2,54.2 79.5,61.6 	"/>
</g>
<g>
	<polygon class="st0" points="104.3,51.2 81.3,42.9 81.3,9.1 104.3,17 	"/>
	<polygon class="st0" points="108.6,51.2 131.6,42.9 131.6,9.1 108.6,17 	"/>
	<polygon class="st0" points="83.7,6.6 107,0 128.6,7 107,14.3 	"/>
</g>
<g>
	<polygon class="st0" points="158.2,51.2 135.1,42.9 135.1,9.1 158.2,17 	"/>
	<polygon class="st0" points="162.4,51.2 185.5,42.9 185.5,9.1 162.4,17 	"/>
	<polygon class="st0" points="137.5,6.6 160.8,0 182.5,7 160.8,14.3 	"/>
</g>
<g>
	<path class="st1" d="M146.4,123.6l-7.7,26.9h-3.4l-6-20l-5.5,20h-3.4l-8.1-26.9h4.2l5.9,20.1l5.6-20.1h3.1l6.1,20.1l6-20.1H146.4z"
		/>
	<path class="st1" d="M167.9,142.5l3.9,0.8c-0.7,2.3-2.1,4.2-4.1,5.7c-2.1,1.5-4.5,2.3-7.3,2.3c-3.7,0-6.6-1.3-8.9-3.9
		c-2.3-2.6-3.4-6-3.4-10.2c0-4.3,1.2-7.8,3.5-10.4c2.4-2.6,5.3-4,8.9-4c3.5,0,6.3,1.2,8.5,3.6c2.1,2.4,3.2,6.1,3.3,10.9h-19.5
		c0,4.1,0.9,6.8,2.6,8.2c1.7,1.4,3.5,2.1,5.4,2.1C164.1,147.8,166.5,146,167.9,142.5z M167.6,134.3c0-1.5-0.3-2.8-0.7-4
		c-0.5-1.2-1.2-2.2-2.3-3c-1.1-0.8-2.4-1.2-4-1.2c-2.1,0-3.8,0.7-5.3,2.2c-1.4,1.5-2.3,3.5-2.4,6H167.6z"/>
	<path class="st1" d="M179.7,150.5h-2v-36.3h4.2v13.9c1.9-3.5,4.6-5.2,7.9-5.2c3.1,0,5.7,1.2,7.7,3.7c2.1,2.4,3.1,6,3.1,10.6
		c0,4-1,7.4-3.1,10.1c-2,2.7-4.7,4.1-8,4.1c-3.7,0-6.5-1.7-8.4-5.2L179.7,150.5z M181.9,140c0.2,2.8,1,4.8,2.5,6
		c1.5,1.2,3.1,1.9,4.8,1.9c2.1,0,3.8-0.9,5.2-2.8c1.3-1.8,2-4.4,2-7.6c0-3.5-0.6-6.2-1.9-8.2c-1.3-2-3-3-5.2-3
		c-1.8,0-3.3,0.7-4.8,2.1c-1.4,1.4-2.2,3.2-2.5,5.5V140z"/>
	<path class="st1" d="M211.4,143.6l4-0.8c0.9,3.4,3.7,5.1,8.4,5.1c1.7,0,3.2-0.4,4.4-1.2c1.2-0.8,1.8-1.9,1.8-3.3
		c0-2.1-1.5-3.4-4.6-4l-5.7-1.1c-2.2-0.4-4-1.3-5.3-2.5c-1.3-1.2-2-2.9-2-4.9c0-2.3,0.9-4.1,2.7-5.7c1.8-1.5,4.2-2.3,7.2-2.3
		c5.8,0,9.4,2.3,10.8,6.8l-3.8,0.8c-1.1-2.8-3.4-4.2-6.8-4.2c-1.7,0-3.1,0.3-4.2,1c-1.1,0.7-1.6,1.7-1.6,2.9c0,2,1.4,3.2,4.2,3.7
		l5.2,1c5.5,1,8.2,3.7,8.2,8c0,2.5-1,4.5-3.1,6c-2,1.5-4.8,2.3-8.2,2.3C216.9,151.3,212.9,148.7,211.4,143.6z"/>
	<path class="st1" d="M256.7,142.5l3.9,0.8c-0.7,2.3-2.1,4.2-4.2,5.7c-2.1,1.5-4.5,2.3-7.3,2.3c-3.7,0-6.6-1.3-8.9-3.9
		c-2.3-2.6-3.4-6-3.4-10.2c0-4.3,1.2-7.8,3.5-10.4c2.4-2.6,5.3-4,8.9-4c3.5,0,6.3,1.2,8.5,3.6c2.1,2.4,3.2,6.1,3.3,10.9h-19.5
		c0,4.1,0.9,6.8,2.6,8.2c1.7,1.4,3.5,2.1,5.4,2.1C252.9,147.8,255.3,146,256.7,142.5z M256.5,134.3c0-1.5-0.3-2.8-0.7-4
		c-0.5-1.2-1.2-2.2-2.3-3c-1.1-0.8-2.4-1.2-4-1.2c-2.1,0-3.8,0.7-5.3,2.2c-1.4,1.5-2.3,3.5-2.4,6H256.5z"/>
	<path class="st1" d="M269.8,150.5h-4.2v-26.9h3.7v6.3c1.3-2.9,2.6-4.8,3.9-5.7c1.3-0.9,2.6-1.3,4-1.3c0.4,0,1,0,1.7,0.1v4H278
		c-2.3,0-4.2,0.9-5.7,2.6c-1.5,1.7-2.3,4-2.4,6.8V150.5z"/>
	<path class="st1" d="M304.9,123.6l-9.3,26.9h-4.3l-9.6-26.9h4.6l7.5,21.9l7.4-21.9H304.9z"/>
	<path class="st1" d="M312.7,114.2v4.6h-4.5v-4.6H312.7z M312.6,123.6v26.9h-4.2v-26.9H312.6z"/>
	<path class="st1" d="M334.5,141.1l3.8,0.7c-0.5,3-1.7,5.3-3.5,7c-1.8,1.7-4.1,2.5-6.8,2.5c-3.7,0-6.5-1.4-8.5-4.1
		c-1.9-2.7-2.9-6.1-2.9-10c0-4.1,1-7.5,3.1-10.2c2-2.7,4.8-4.1,8.4-4.1c2.9,0,5.3,0.9,7,2.6c1.8,1.8,2.9,4,3.3,6.8l-3.8,0.7
		c-0.7-4.4-2.9-6.7-6.4-6.7c-2.3,0-4.1,1-5.3,2.9c-1.2,2-1.9,4.5-1.9,7.6c0,3.4,0.6,6.1,1.8,8c1.2,1.9,3,2.9,5.2,2.9
		C331.4,147.8,333.6,145.6,334.5,141.1z"/>
	<path class="st1" d="M362,142.5l3.9,0.8c-0.7,2.3-2.1,4.2-4.2,5.7c-2.1,1.5-4.5,2.3-7.3,2.3c-3.7,0-6.6-1.3-8.9-3.9
		c-2.3-2.6-3.4-6-3.4-10.2c0-4.3,1.2-7.8,3.5-10.4c2.4-2.6,5.3-4,8.9-4c3.5,0,6.3,1.2,8.5,3.6c2.1,2.4,3.2,6.1,3.3,10.9h-19.5
		c0,4.1,0.9,6.8,2.6,8.2c1.7,1.4,3.5,2.1,5.4,2.1C358.1,147.8,360.6,146,362,142.5z M361.7,134.3c0-1.5-0.3-2.8-0.7-4
		c-0.5-1.2-1.2-2.2-2.3-3c-1.1-0.8-2.4-1.2-4-1.2c-2.1,0-3.8,0.7-5.3,2.2c-1.4,1.5-2.3,3.5-2.4,6H361.7z"/>
	<path class="st1" d="M368.7,143.6l4-0.8c0.9,3.4,3.7,5.1,8.4,5.1c1.7,0,3.2-0.4,4.4-1.2c1.2-0.8,1.8-1.9,1.8-3.3
		c0-2.1-1.5-3.4-4.6-4l-5.7-1.1c-2.2-0.4-4-1.3-5.3-2.5c-1.3-1.2-2-2.9-2-4.9c0-2.3,0.9-4.1,2.7-5.7c1.8-1.5,4.2-2.3,7.2-2.3
		c5.8,0,9.4,2.3,10.8,6.8l-3.8,0.8c-1.1-2.8-3.4-4.2-6.8-4.2c-1.7,0-3.1,0.3-4.2,1c-1.1,0.7-1.6,1.7-1.6,2.9c0,2,1.4,3.2,4.2,3.7
		l5.2,1c5.5,1,8.2,3.7,8.2,8c0,2.5-1,4.5-3.1,6c-2,1.5-4.8,2.3-8.2,2.3C374.1,151.3,370.2,148.7,368.7,143.6z"/>
</g>
<g>
	<g>
		<path class="st2" d="M274.2,66.1v-6.5c0-1,0.7-1.6,1.6-1.6l29,0c0.9,0,1.7,0.7,1.7,1.6l0,5.5c0,0.9-0.8,2.1-2.2,4.1l-15,21.4
			c5.6-0.1,11.5,0.7,16.5,3.5c1.1,0.6,1.4,1.6,1.5,2.5v6.9c0,1-1,2.1-2.1,1.5c-8.9-4.7-20.8-5.2-30.6,0.1c-1,0.5-2.1-0.5-2.1-1.5
			v-6.6c0-1,0-2.8,1.1-4.4L291,67.7l-15.1,0C274.9,67.7,274.2,67.1,274.2,66.1z"/>
		<path class="st2" d="M170.5,106.5h-8.8c-0.8-0.1-1.5-0.7-1.6-1.5l0-45.2c0-0.9,0.8-1.6,1.7-1.6l8.2,0c0.9,0,1.5,0.7,1.6,1.5v5.9
			h0.2c2.1-5.7,6.2-8.4,11.6-8.4c5.5,0,9,2.7,11.4,8.4c2.1-5.7,7-8.4,12.2-8.4c3.7,0,7.7,1.5,10.2,5c2.8,3.8,2.2,9.3,2.2,14.2
			l0,28.6c0,0.9-0.8,1.6-1.7,1.6h-8.8c-0.9-0.1-1.6-0.8-1.6-1.6l0-24c0-1.9,0.2-6.7-0.2-8.5c-0.7-3-2.6-3.9-5.2-3.9
			c-2.1,0-4.4,1.4-5.3,3.7c-0.9,2.3-0.8,6.1-0.8,8.7v24c0,0.9-0.8,1.6-1.7,1.6h-8.8c-0.9-0.1-1.6-0.8-1.6-1.6l0-24
			c0-5,0.8-12.5-5.4-12.5c-6.3,0-6.1,7.2-6.1,12.5l0,24C172.2,105.7,171.4,106.5,170.5,106.5z"/>
		<path class="st2" d="M327.7,57.2c13,0,20,11.2,20,25.5c0,13.8-7.8,24.8-20,24.8c-12.7,0-19.7-11.2-19.7-25.2
			C308.1,68.1,315.1,57.2,327.7,57.2z M327.8,67.6c-6.5,0-6.9,8.9-6.9,14.4c0,5.5-0.1,16.2,6.8,16.2c6.8,0,7.1-8.4,7.1-14.2
			c0-3.8-0.2-8.4-1.3-12C332.5,68.8,330.6,67.6,327.8,67.6z"/>
		<path class="st2" d="M366.5,106.5h-8.8c-0.9-0.1-1.6-0.8-1.6-1.6l0-45.3c0.1-0.8,0.8-1.5,1.7-1.5l8.2,0c0.8,0,1.4,0.6,1.6,1.3v6.9
			h0.2c2.5-6.2,5.9-9.1,12-9.1c3.9,0,7.8,1.4,10.3,5.3c2.3,3.6,2.3,9.7,2.3,14.1V105c-0.1,0.8-0.8,1.4-1.7,1.4h-8.8
			c-0.8-0.1-1.5-0.7-1.6-1.4V80.5c0-5,0.6-12.2-5.5-12.2c-2.1,0-4.1,1.4-5.1,3.6c-1.2,2.8-1.4,5.5-1.4,8.6v24.4
			C368.2,105.7,367.5,106.5,366.5,106.5z"/>
		<path class="st2" d="M252.1,84.9c0,3.4,0.1,6.3-1.6,9.4c-1.4,2.5-3.6,4-6.1,4c-3.4,0-5.4-2.6-5.4-6.4c0-7.5,6.7-8.9,13.1-8.9V84.9
			z M260.9,106.4c-0.6,0.5-1.4,0.6-2.1,0.2c-2.9-2.4-3.5-3.6-5.1-5.9c-4.8,4.9-8.3,6.4-14.5,6.4c-7.4,0-13.2-4.6-13.2-13.7
			c0-7.2,3.9-12,9.4-14.4c4.8-2.1,11.5-2.5,16.6-3.1v-1.1c0-2.1,0.2-4.6-1.1-6.4c-1.1-1.6-3.1-2.3-4.9-2.3c-3.4,0-6.4,1.7-7.1,5.3
			c-0.2,0.8-0.7,1.6-1.5,1.6l-8.5-0.9c-0.7-0.2-1.5-0.7-1.3-1.8c2-10.4,11.3-13.5,19.7-13.5c4.3,0,9.9,1.1,13.3,4.4
			c4.3,4,3.9,9.4,3.9,15.2V90c0,4.1,1.7,5.9,3.3,8.2c0.6,0.8,0.7,1.8,0,2.3C265.9,102,262.7,104.8,260.9,106.4L260.9,106.4z"/>
		<path class="st2" d="M137.5,84.9c0,3.4,0.1,6.3-1.6,9.4c-1.4,2.5-3.6,4-6.1,4c-3.4,0-5.4-2.6-5.4-6.4c0-7.5,6.7-8.9,13.1-8.9V84.9
			z M146.4,106.4c-0.6,0.5-1.4,0.6-2.1,0.2c-2.9-2.4-3.5-3.6-5.1-5.9c-4.8,4.9-8.3,6.4-14.5,6.4c-7.4,0-13.2-4.6-13.2-13.7
			c0-7.2,3.9-12,9.4-14.4c4.8-2.1,11.5-2.5,16.6-3.1v-1.1c0-2.1,0.2-4.6-1.1-6.4c-1.1-1.6-3.1-2.3-4.9-2.3c-3.4,0-6.4,1.7-7.1,5.3
			c-0.2,0.8-0.7,1.6-1.5,1.6l-8.5-0.9c-0.7-0.2-1.5-0.7-1.3-1.8c2-10.4,11.3-13.5,19.7-13.5c4.3,0,9.9,1.1,13.3,4.4
			c4.3,4,3.9,9.4,3.9,15.2V90c0,4.1,1.7,5.9,3.3,8.2c0.6,0.8,0.7,1.8,0,2.3C151.4,102,148.2,104.8,146.4,106.4L146.4,106.4z"/>
	</g>
</g>
</svg>
