<?xml version="1.0" encoding="utf-8"?>
<!-- Generator: Adobe Illustrator 21.0.2, SVG Export Plug-In . SVG Version: 6.00 Build 0)  -->
<svg version="1.1" id="Layer_1" xmlns="http://www.w3.org/2000/svg" xmlns:xlink="http://www.w3.org/1999/xlink" x="0px" y="0px"
	 width="442.4px" height="271px" viewBox="0 0 442.4 271" style="enable-background:new 0 0 442.4 271;" xml:space="preserve">
<style type="text/css">
	.st0{fill:#699F63;}
	.st1{fill-rule:evenodd;clip-rule:evenodd;fill:#333333;}
	.st2{fill-rule:evenodd;clip-rule:evenodd;fill:#699F63;}
	.st3{fill-rule:evenodd;clip-rule:evenodd;fill:url(#XMLID_6_);}
	.st4{clip-path:url(#XMLID_7_);}
	.st5{fill:none;}
	.st6{opacity:0.66;fill:#B4B4B4;}
	.st7{fill:url(#SVGID_1_);}
</style>
<g>
	<g>
		<path class="st0" d="M218.7,271c-1.5,0-2.9-0.4-4.2-1.1l-13.3-7.9c-2-1.1-1-1.5-0.4-1.7c2.7-0.9,3.2-1.1,6-2.7
			c0.3-0.2,0.7-0.1,1,0.1l10.2,6.1c0.4,0.2,0.9,0.2,1.2,0l40-23.1c0.4-0.2,0.6-0.6,0.6-1.1v-46.1c0-0.5-0.2-0.9-0.6-1.1l-39.9-23
			c-0.4-0.2-0.9-0.2-1.2,0l-39.9,23c-0.4,0.2-0.6,0.7-0.6,1.1v46.1c0,0.4,0.2,0.9,0.6,1.1l10.9,6.3c5.9,3,9.6-0.5,9.6-4v-45.5
			c0-0.6,0.5-1.2,1.2-1.2h5.1c0.6,0,1.2,0.5,1.2,1.2v45.5c0,7.9-4.3,12.5-11.8,12.5c-2.3,0-4.1,0-9.2-2.5l-10.5-6
			c-2.6-1.5-4.2-4.3-4.2-7.3v-46.1c0-3,1.6-5.8,4.2-7.3l40-23.1c2.5-1.4,5.9-1.4,8.4,0l40,23.1c2.6,1.5,4.2,4.3,4.2,7.3v46.1
			c0,3-1.6,5.8-4.2,7.3l-40,23.1C221.6,270.6,220.1,271,218.7,271z"/>
		<path class="st0" d="M231,239.2c-17.5,0-21.1-8-21.1-14.8c0-0.6,0.5-1.2,1.2-1.2h5.2c0.6,0,1.1,0.4,1.1,1
			c0.8,5.3,3.1,7.9,13.7,7.9c8.4,0,12-1.9,12-6.4c0-2.6-1-4.5-14.1-5.8c-10.9-1.1-17.7-3.5-17.7-12.2c0-8.1,6.8-12.9,18.2-12.9
			c12.8,0,19.1,4.4,19.9,14c0,0.3-0.1,0.6-0.3,0.9c-0.2,0.2-0.5,0.4-0.8,0.4H243c-0.5,0-1-0.4-1.1-0.9c-1.2-5.5-4.3-7.3-12.5-7.3
			c-9.2,0-10.3,3.2-10.3,5.6c0,2.9,1.3,3.8,13.7,5.4c12.3,1.6,18.1,3.9,18.1,12.6C250.9,234.2,243.7,239.2,231,239.2z"/>
	</g>
	<g>
		<path class="st0" d="M288.6,190.8c0,4.2-3.5,7.7-7.7,7.7c-4.2,0-7.7-3.4-7.7-7.7c0-4.4,3.6-7.7,7.7-7.7
			C285.1,183.1,288.6,186.5,288.6,190.8z M274.5,190.8c0,3.6,2.9,6.5,6.4,6.5c3.6,0,6.5-3,6.5-6.5c0-3.6-2.9-6.4-6.5-6.4
			C277.4,184.4,274.5,187.2,274.5,190.8z M278,186.5h3c1,0,3,0,3,2.3c0,1.6-1,1.9-1.6,2.1c1.2,0.1,1.3,0.9,1.4,2
			c0.1,0.7,0.2,1.9,0.4,2.3h-1.8c0-0.4-0.3-2.6-0.3-2.7c-0.1-0.5-0.3-0.7-0.9-0.7h-1.5v3.5H278V186.5z M279.7,190.3h1.3
			c1.1,0,1.3-0.8,1.3-1.2c0-1.2-0.8-1.2-1.3-1.2h-1.4V190.3z"/>
	</g>
	<path class="st1" d="M94.9,90.6c0-1.8-1-3.5-2.6-4.4L50,61.7c-0.7-0.4-1.5-0.6-2.3-0.7c-0.1,0-0.4,0-0.4,0c-0.8,0-1.6,0.3-2.3,0.7
		L2.6,86.1C1,87,0,88.7,0,90.6l0.1,65.6c0,0.9,0.5,1.8,1.3,2.2c0.8,0.5,1.8,0.5,2.5,0L29.1,144c1.6-0.9,2.6-2.6,2.6-4.4v-30.7
		c0-1.8,1-3.5,2.6-4.4l10.7-6.2c0.8-0.5,1.7-0.7,2.6-0.7c0.9,0,1.8,0.2,2.5,0.7l10.7,6.2c1.6,0.9,2.6,2.6,2.6,4.4v30.7
		c0,1.8,1,3.5,2.6,4.4L91,158.4c0.8,0.5,1.8,0.5,2.6,0c0.8-0.4,1.3-1.3,1.3-2.2L94.9,90.6z"/>
	<path class="st1" d="M298.8,0.3c-0.8-0.4-1.8-0.4-2.5,0c-0.8,0.5-1.3,1.3-1.3,2.2v65c0,0.6-0.3,1.2-0.9,1.6c-0.6,0.3-1.2,0.3-1.8,0
		L281.7,63c-1.6-0.9-3.5-0.9-5.1,0l-42.4,24.5c-1.6,0.9-2.6,2.6-2.6,4.4v48.9c0,1.8,1,3.5,2.6,4.4l42.4,24.5c1.6,0.9,3.5,0.9,5.1,0
		l42.4-24.5c1.6-0.9,2.6-2.6,2.6-4.4V18.9c0-1.9-1-3.6-2.6-4.5L298.8,0.3z M294.8,124.7c0,0.5-0.2,0.9-0.6,1.1l-14.5,8.4
		c-0.4,0.2-0.9,0.2-1.3,0l-14.5-8.4c-0.4-0.2-0.6-0.7-0.6-1.1v-16.8c0-0.5,0.2-0.9,0.6-1.1l14.5-8.4c0.4-0.2,0.9-0.2,1.3,0l14.5,8.4
		c0.4,0.2,0.6,0.7,0.6,1.1V124.7z"/>
	<g>
		<path class="st1" d="M439.9,107.5c1.6-0.9,2.5-2.6,2.5-4.4V91.2c0-1.8-1-3.5-2.5-4.4l-42.1-24.4c-1.6-0.9-3.5-0.9-5.1,0
			l-42.4,24.5c-1.6,0.9-2.6,2.6-2.6,4.4v48.9c0,1.8,1,3.5,2.6,4.4l42.1,24c1.6,0.9,3.5,0.9,5,0l25.5-14.2c0.8-0.4,1.3-1.3,1.3-2.2
			c0-0.9-0.5-1.8-1.3-2.2l-42.6-24.5c-0.8-0.5-1.3-1.3-1.3-2.2V108c0-0.9,0.5-1.8,1.3-2.2l13.3-7.6c0.8-0.5,1.8-0.5,2.6,0l13.3,7.6
			c0.8,0.5,1.3,1.3,1.3,2.2V120c0,0.9,0.5,1.8,1.3,2.2c0.8,0.5,1.8,0.5,2.6,0L439.9,107.5z"/>
		<path class="st2" d="M394.6,105.2c0.3-0.2,0.7-0.2,1,0l8.1,4.7c0.3,0.2,0.5,0.5,0.5,0.9v9.4c0,0.4-0.2,0.7-0.5,0.9l-8.1,4.7
			c-0.3,0.2-0.7,0.2-1,0l-8.1-4.7c-0.3-0.2-0.5-0.5-0.5-0.9v-9.4c0-0.4,0.2-0.7,0.5-0.9L394.6,105.2z"/>
	</g>
	<g>
		<linearGradient id="XMLID_6_" gradientUnits="userSpaceOnUse" x1="116.1783" y1="115.5288" x2="210.3822" y2="115.5288">
			<stop  offset="5.301339e-03" style="stop-color:#000000"/>
			<stop  offset="0.1938" style="stop-color:#171717"/>
			<stop  offset="0.5423" style="stop-color:#3D3D3D"/>
			<stop  offset="0.8235" style="stop-color:#545454"/>
			<stop  offset="1" style="stop-color:#5C5C5C"/>
		</linearGradient>
		<path id="XMLID_67_" class="st3" d="M160.7,62.6c1.6-0.9,3.5-0.9,5.1,0l42,24.3c1.6,0.9,2.5,2.6,2.5,4.4v48.5c0,1.8-1,3.5-2.5,4.4
			l-42,24.3c-1.6,0.9-3.5,0.9-5.1,0l-42-24.3c-1.6-0.9-2.5-2.6-2.5-4.4V91.2c0-1.8,1-3.5,2.5-4.4L160.7,62.6z"/>
		<g>
			<defs>
				<path id="XMLID_64_" d="M165.8,62.6c-1.6-0.9-3.5-0.9-5.1,0l-42,24.3c-1.6,0.9-2.5,2.6-2.5,4.4v48.5c0,1.8,1,3.5,2.5,4.4
					l42,24.3c1.6,0.9,3.5,0.9,5.1,0l42-24.3c1.6-0.9,2.5-2.6,2.5-4.4V91.2c0-1.8-1-3.5-2.5-4.4L165.8,62.6z"/>
			</defs>
			<clipPath id="XMLID_7_">
				<use xlink:href="#XMLID_64_"  style="overflow:visible;"/>
			</clipPath>
			<g class="st4">
				<path class="st5" d="M160.7,62.6l-42.1,24.3c-1.6,0.9-2.6,2.6-2.6,4.4v48.5c0,1.2,0.4,2.3,1.2,3.2l47.3-80.9
					C163.2,61.8,161.8,61.9,160.7,62.6z"/>
				<path class="st5" d="M164.7,168.9c0.3-0.1,0.7-0.2,1-0.4l41.9-24.3c1.6-0.9,2.3-2.6,2.3-4.4V91.2c0-1.2-0.4-2.4-1.1-3.3
					L164.7,168.9z"/>
				<path class="st6" d="M207.6,86.8l-41.8-24.3c-0.4-0.2-0.9-0.4-1.3-0.5L117.2,143c0.4,0.5,0.9,0.9,1.4,1.2l42.1,24.3
					c1.3,0.7,2.7,0.9,4,0.4L208.9,88C208.6,87.5,208.1,87.1,207.6,86.8z"/>
			</g>
			<g class="st4">
				<path class="st5" d="M119.1,86.6l-0.5,0.3c-1.6,0.9-2.6,2.6-2.6,4.4v48.5c0,1.8,1,3.5,2.6,4.4l42.1,24.3
					c1.1,0.7,2.4,0.8,3.7,0.5L119.1,86.6z"/>
				<path class="st5" d="M210,91.2c0-1.8-0.8-3.5-2.4-4.4l-41.8-24.3c-0.4-0.2-0.8-0.4-1.2-0.5l45.4,77.5V91.2z"/>
				<linearGradient id="SVGID_1_" gradientUnits="userSpaceOnUse" x1="115.527" y1="115.4598" x2="212.7048" y2="115.4598">
					<stop  offset="0" style="stop-color:#5C5C5C"/>
					<stop  offset="0.1765" style="stop-color:#545454"/>
					<stop  offset="0.4577" style="stop-color:#3D3D3D"/>
					<stop  offset="0.8062" style="stop-color:#171717"/>
					<stop  offset="0.9947" style="stop-color:#000000"/>
				</linearGradient>
				<path class="st7" d="M165.7,168.5l41.9-24.3c1.6-0.9,2.3-2.6,2.3-4.4v-0.2l-45.4-77.5c-1.3-0.4-2.7-0.2-3.9,0.5l-41.6,24
					l45.2,82.4C164.8,168.9,165.3,168.7,165.7,168.5z"/>
			</g>
		</g>
	</g>
</g>
</svg>
