<?xml version="1.0" encoding="utf-8"?>
<!-- Generator: Adobe Illustrator 21.0.2, SVG Export Plug-In . SVG Version: 6.00 Build 0)  -->
<svg version="1.1" id="Layer_1" xmlns="http://www.w3.org/2000/svg" xmlns:xlink="http://www.w3.org/1999/xlink" x="0px" y="0px"
	 width="104.386px" height="104.386px" viewBox="0 0 104.386 104.386" enable-background="new 0 0 104.386 104.386"
	 xml:space="preserve">
<g opacity="0.3">
	<path fill="#3A3E3F" d="M36.611,20.777L26.135,31.254v5.313l10.476,3.793v-9.106h27.433c1.097,0,1.996,0.899,1.996,1.996v11.971
		c0,1.097-0.899,1.996-1.996,1.996H36.569v10.476h27.476c1.097,0,1.996,0.899,1.996,1.996V71.66c0,1.097-0.899,1.996-1.996,1.996
		H36.611V63.593L26.135,69.17v4.486l10.476,10.476H66.04l10.476-10.476V57.693l-5.189-5.288l5.189-5.189V31.254L66.04,20.777H36.611
		z"/>
</g>
<circle opacity="0.3" fill="none" stroke="#3A3E3F" stroke-width="4" stroke-miterlimit="10" cx="52.193" cy="52.193" r="50.193"/>
</svg>
