<?xml version="1.0" encoding="utf-8"?>
<!-- Generator: Adobe Illustrator 21.0.2, SVG Export Plug-In . SVG Version: 6.00 Build 0)  -->
<svg version="1.1" id="Layer_1" xmlns="http://www.w3.org/2000/svg" xmlns:xlink="http://www.w3.org/1999/xlink" x="0px" y="0px"
	 width="135.7px" height="85.2px" viewBox="0 0 135.7 85.2" style="enable-background:new 0 0 135.7 85.2;" xml:space="preserve">
<style type="text/css">
	.st0{fill:#00375A;}
	.st1{fill:none;stroke:#00375A;stroke-width:4;stroke-miterlimit:10;}
</style>
<g>
	<path class="st0" d="M57.7,22.4l-6.6,6.6v3.3l6.6,2.4v-5.7h17.3c0.7,0,1.3,0.6,1.3,1.3v7.5c0,0.7-0.6,1.3-1.3,1.3H57.7v6.6h17.3
		c0.7,0,1.3,0.6,1.3,1.3v7.5c0,0.7-0.6,1.3-1.3,1.3H57.7v-6.3l-6.6,3.5v2.8l6.6,6.6h18.5l6.6-6.6v-10l-3.3-3.3l3.3-3.3v-10l-6.6-6.6
		H57.7z"/>
</g>
<polygon class="st1" points="67.8,2.4 131.9,42.6 67.8,82.8 3.8,42.6 "/>
<g>
	<path class="st0" d="M32.5,34.8h11.1v3l-3.9,0v13.7h-3.4V37.8l-3.8,0V34.8z"/>
</g>
<g>
	<path class="st0" d="M92.5,34.8h7.9l2.2,2.2v6.4l-2.2,2.1h-4.6l0,5.9h-3.4L92.5,34.8z M95.9,37.8v4.7h2.6l0.7-0.7v-3.3l-0.7-0.7
		H95.9z"/>
</g>
</svg>
